<mxfile host="app.diagrams.net" modified="2024-02-18T20:24:41.707Z" agent="Mozilla/5.0 (X11; Linux x86_64; rv:122.0) Gecko/20100101 Firefox/122.0" version="23.1.5" etag="O9ZsM4aSp9LLPYAyVGiS" type="github">
  <diagram name="Страница — 1" id="86C9Vdskr3UnClgAXm17">
    <mxGraphModel>
      <root>
        <mxCell id="0" />
        <mxCell id="1" parent="0" />
      </root>
    </mxGraphModel>
  </diagram>
</mxfile>
